#define ged_undo_width 18
#define ged_undo_height 18
static unsigned char ged_undo_bits[] = {
  0x00, 0x00, 0x00, 0x00, 0x00, 0x00, 0x00, 0x00, 0x00, 0x00, 0x3c, 0x00,
  0x00, 0x42, 0x00, 0x82, 0x81, 0x00, 0xc6, 0x00, 0x01, 0x6e, 0x00, 0x01,
  0x3e, 0x00, 0x01, 0x3e, 0x00, 0x01, 0x7e, 0x00, 0x01, 0xfe, 0x80, 0x00,
  0xfe, 0x41, 0x00, 0x00, 0x30, 0x00, 0x00, 0x00, 0x00, 0x00, 0x00, 0x00,
  0x00, 0x00, 0x00, 0x00, 0x00, 0x00, };
