#define ged_redo_width 18
#define ged_redo_height 18
static unsigned char ged_redo_bits[] = {
  0x00, 0x00, 0x00, 0x00, 0x00, 0x00, 0x00, 0x00, 0x00, 0xf0, 0x00, 0x00,
  0x08, 0x01, 0x00, 0x04, 0x06, 0x01, 0x02, 0x8c, 0x01, 0x02, 0xd8, 0x01,
  0x02, 0xf0, 0x01, 0x02, 0xf0, 0x01, 0x02, 0xf8, 0x01, 0x04, 0xfc, 0x01,
  0x08, 0xfe, 0x01, 0x30, 0x00, 0x00, 0x00, 0x00, 0x00, 0x00, 0x00, 0x00,
  0x00, 0x00, 0x00, 0x00, 0x00, 0x00, };
